<svg width="80" height="80" viewBox="0 0 80 80" fill="none" xmlns="http://www.w3.org/2000/svg">
<g clip-path="url(#clip0)">
<rect x="-1" width="80" height="80" rx="40" fill="#00AAFF"/>
<path d="M50.2114 63.2875C56.8104 63.2875 62.16 57.938 62.16 51.3389C62.16 44.7399 56.8104 39.3904 50.2114 39.3904C43.6124 39.3904 38.2628 44.7399 38.2628 51.3389C38.2628 57.938 43.6124 63.2875 50.2114 63.2875Z" fill="white"/>
<path d="M27.7525 56.9009C30.8242 56.9009 33.3144 54.4108 33.3144 51.339C33.3144 48.2672 30.8242 45.7771 27.7525 45.7771C24.6807 45.7771 22.1906 48.2672 22.1906 51.339C22.1906 54.4108 24.6807 56.9009 27.7525 56.9009Z" fill="white"/>
<path d="M50.2114 36.5713C54.4593 36.5713 57.9029 33.1278 57.9029 28.8799C57.9029 24.632 54.4593 21.1885 50.2114 21.1885C45.9636 21.1885 42.52 24.632 42.52 28.8799C42.52 33.1278 45.9636 36.5713 50.2114 36.5713Z" fill="white"/>
<path d="M27.7524 38.699C33.1753 38.699 37.5714 34.3029 37.5714 28.88C37.5714 23.4571 33.1753 19.0609 27.7524 19.0609C22.3295 19.0609 17.9333 23.4571 17.9333 28.88C17.9333 34.3029 22.3295 38.699 27.7524 38.699Z" fill="white"/>
</g>
<defs>
<clipPath id="clip0">
<rect width="80" height="80" fill="white"/>
</clipPath>
</defs>
</svg>
