<svg width="80" height="80" viewBox="0 0 80 80" fill="none" xmlns="http://www.w3.org/2000/svg">
<rect width="80" height="80" rx="40" fill="#4393D0"/>
<path d="M42.0761 34.1448H39.4361V41.2229H46.1999V38.5829H42.0761V34.1448ZM40.9028 48.1562C38.5194 48.1562 36.2336 47.2094 34.5482 45.5241C32.8629 43.8387 31.9161 41.5529 31.9161 39.1695C31.9161 36.7861 32.8629 34.5003 34.5482 32.815C36.2336 31.1297 38.5194 30.1829 40.9028 30.1829C43.2862 30.1829 45.572 31.1297 47.2573 32.815C48.9426 34.5003 49.8894 36.7861 49.8894 39.1695C49.8894 41.5529 48.9426 43.8387 47.2573 45.5241C45.572 47.2094 43.2862 48.1562 40.9028 48.1562ZM58.4171 36.7276C58.546 35.0784 58.259 33.4232 57.5824 31.9136C56.9058 30.4041 55.8611 29.0885 54.5442 28.0873C53.2273 27.0862 51.6802 26.4315 50.0446 26.1833C48.4091 25.9351 46.7374 26.1013 45.1828 26.6667C44.2679 24.6995 42.7314 23.0879 40.81 22.0804C38.8887 21.0728 36.6893 20.7253 34.5509 21.0913C32.4125 21.4574 30.4539 22.5168 28.9771 24.106C27.5003 25.6953 26.5874 27.7263 26.379 29.8857C23.5368 30.5381 21.0341 32.2134 19.3478 34.5925C17.6615 36.9715 16.9096 39.8879 17.2354 42.7857C17.5612 45.6835 18.9419 48.3602 21.1144 50.3054C23.2868 52.2506 26.0991 53.3284 29.0152 53.3333H57.1314C61.7866 53.3333 65.5599 50.0495 65.5599 44.9048C65.5599 38.2438 59.0723 36.5638 58.4171 36.7276Z" fill="white"/>
</svg>
