<svg width="80" height="80" viewBox="0 0 80 80" fill="none" xmlns="http://www.w3.org/2000/svg">
<rect width="80" height="80" rx="40" fill="#E85998"/>
<path d="M31.1771 19.0476C24.4971 19.0476 19.0476 24.4952 19.0476 31.1771V48.8228C19.0476 55.5028 24.4952 60.9524 31.1771 60.9524H48.8228C55.5028 60.9524 60.9524 55.5047 60.9524 48.8228V31.1771C60.9524 24.4971 55.5047 19.0476 48.8228 19.0476H31.1771ZM31.1771 23.459H48.8228C49.8387 23.4507 50.8461 23.6446 51.7863 24.0295C52.7265 24.4144 53.5807 24.9826 54.299 25.7009C55.0174 26.4193 55.5856 27.2735 55.9705 28.2137C56.3554 29.1538 56.5493 30.1612 56.5409 31.1771V48.8228C56.5493 49.8387 56.3554 50.8461 55.9705 51.7863C55.5856 52.7265 55.0174 53.5807 54.299 54.299C53.5807 55.0174 52.7265 55.5856 51.7863 55.9705C50.8461 56.3554 49.8387 56.5493 48.8228 56.5409H31.1771C30.1612 56.5493 29.1538 56.3554 28.2137 55.9705C27.2735 55.5856 26.4193 55.0174 25.7009 54.299C24.9826 53.5807 24.4144 52.7265 24.0295 51.7863C23.6446 50.8461 23.4507 49.8387 23.459 48.8228V31.1771C23.4507 30.1612 23.6446 29.1538 24.0295 28.2137C24.4144 27.2735 24.9826 26.4193 25.7009 25.7009C26.4193 24.9826 27.2735 24.4144 28.2137 24.0295C29.1538 23.6446 30.1612 23.4507 31.1771 23.459ZM51.0267 26.7676C50.7372 26.7676 50.4507 26.8246 50.1833 26.9354C49.9159 27.0461 49.673 27.2084 49.4683 27.4131C49.2637 27.6177 49.1014 27.8607 48.9906 28.1281C48.8799 28.3954 48.8228 28.682 48.8228 28.9714C48.8228 29.2608 48.8799 29.5474 48.9906 29.8148C49.1014 30.0822 49.2637 30.3251 49.4683 30.5297C49.673 30.7344 49.9159 30.8967 50.1833 31.0075C50.4507 31.1182 50.7372 31.1752 51.0267 31.1752C51.6111 31.1752 52.1717 30.943 52.585 30.5297C52.9983 30.1165 53.2305 29.5559 53.2305 28.9714C53.2305 28.3869 52.9983 27.8264 52.585 27.4131C52.1717 26.9998 51.6111 26.7676 51.0267 26.7676ZM40 28.419C33.6305 28.419 28.4209 33.6286 28.4209 39.9981C28.4209 46.3676 33.6305 51.5771 40 51.5771C46.3695 51.5771 51.579 46.3676 51.579 39.9981C51.579 33.6286 46.3695 28.419 40 28.419ZM40 32.8305C40.9426 32.8262 41.8767 33.0087 42.7484 33.3675C43.6201 33.7263 44.412 34.2543 45.0785 34.9209C45.745 35.5876 46.2727 36.3796 46.6313 37.2514C46.9899 38.1232 47.1721 39.0574 47.1676 40C47.1719 40.9425 46.9894 41.8764 46.6307 42.748C46.272 43.6195 45.7442 44.4114 45.0778 45.0778C44.4114 45.7442 43.6195 46.272 42.748 46.6307C41.8764 46.9894 40.9425 47.1719 40 47.1676C39.0575 47.1719 38.1235 46.9894 37.252 46.6307C36.3804 46.272 35.5886 45.7442 34.9222 45.0778C34.2557 44.4114 33.7279 43.6195 33.3692 42.748C33.0106 41.8764 32.8281 40.9425 32.8324 40C32.8281 39.0575 33.0106 38.1235 33.3692 37.252C33.7279 36.3804 34.2557 35.5886 34.9222 34.9222C35.5886 34.2557 36.3804 33.7279 37.252 33.3692C38.1235 33.0106 39.0575 32.8281 40 32.8324V32.8305Z" fill="white"/>
</svg>
