<svg width="80" height="80" viewBox="0 0 80 80" fill="none" xmlns="http://www.w3.org/2000/svg">
<g clip-path="url(#clip0)">
<rect x="1" width="80" height="80" rx="40" fill="#1EA1F2"/>
<path d="M64.7619 27.7314C63.05 28.4901 61.2344 28.9889 59.3752 29.2114C61.3344 28.0415 62.7999 26.1975 63.4971 24.0248C61.6536 25.1158 59.6383 25.8861 57.5371 26.3029C56.6621 25.3657 55.6033 24.619 54.4267 24.1094C53.2502 23.5998 51.9812 23.3382 50.699 23.341C49.2856 23.3397 47.8902 23.6581 46.6172 24.2722C45.3442 24.8863 44.2265 25.7803 43.3478 26.8873C42.469 27.9943 41.8519 29.2857 41.5427 30.6648C41.2334 32.044 41.24 33.4752 41.5619 34.8514C37.8329 34.6646 34.185 33.6955 30.8549 32.0071C27.5248 30.3188 24.587 27.9489 22.2324 25.0514C21.398 26.4806 20.9613 28.107 20.9676 29.7619C20.9638 31.3058 21.3422 32.8265 22.069 34.1885C22.7959 35.5506 23.8486 36.7115 25.1333 37.5676C23.6434 37.5227 22.1863 37.1189 20.8857 36.3905V36.5105C20.8857 41.0495 24.1238 44.8438 28.4095 45.7067C27.6267 45.9162 26.7924 46.0343 25.9371 46.0343C25.3352 46.0343 24.7467 45.9753 24.1733 45.8629C24.7715 47.7261 25.9375 49.3556 27.508 50.523C29.0785 51.6905 30.9749 52.3375 32.9314 52.3733C30.9857 53.9006 28.7579 55.0291 26.3756 55.6942C23.9932 56.3593 21.503 56.548 19.0476 56.2495C23.3343 59.0082 28.3252 60.473 33.4228 60.4686C50.6705 60.4686 60.1047 46.1829 60.1047 33.7867L60.0743 32.5753C61.917 31.2575 63.5052 29.6163 64.7619 27.7314Z" fill="white"/>
</g>
<defs>
<clipPath id="clip0">
<rect width="80" height="80" fill="white"/>
</clipPath>
</defs>
</svg>
