<svg width="80" height="80" viewBox="0 0 80 80" fill="none" xmlns="http://www.w3.org/2000/svg">
<rect width="80" height="80" rx="40" fill="#3871BA"/>
<path d="M58.8362 51.1181C58.7946 51.0291 58.7488 50.942 58.699 50.8572C58.0057 49.6058 56.68 48.0705 54.7219 46.2477L54.68 46.2058L54.6609 46.1867L54.64 46.1639H54.619C53.7295 45.3162 53.1676 44.7467 52.9314 44.4534C52.5009 43.8972 52.4038 43.3353 52.64 42.7639C52.8057 42.3334 53.4305 41.4229 54.5143 40.0324C55.0838 39.2953 55.5333 38.7048 55.8666 38.261C58.2686 35.061 59.3105 33.0172 58.9905 32.1277L58.8667 31.9181C58.7847 31.7943 58.5695 31.6781 58.2228 31.5753C57.8743 31.4705 57.4305 31.4534 56.8895 31.522L50.8895 31.5639C50.7526 31.5299 50.6091 31.5339 50.4743 31.5753L50.2038 31.6381L50.099 31.6896L50.0152 31.7524C49.927 31.8118 49.8497 31.8859 49.7867 31.9715C49.7 32.0819 49.63 32.2045 49.579 32.3353C48.9567 33.9542 48.2116 35.5232 47.3505 37.0286C46.8362 37.8915 46.3657 38.6381 45.9333 39.2724C45.6115 39.7666 45.2496 40.2336 44.8514 40.6686C44.6046 40.9271 44.3398 41.1677 44.059 41.3886C43.8228 41.5696 43.6438 41.6458 43.5181 41.6172C43.3997 41.5913 43.2816 41.564 43.1638 41.5353C42.9667 41.407 42.8054 41.2307 42.6952 41.0229C42.566 40.769 42.4852 40.4931 42.4571 40.2096C42.4191 39.9296 42.3943 39.648 42.3828 39.3658C42.3772 39.0318 42.381 38.6977 42.3943 38.3639C42.4076 37.9334 42.4133 37.6401 42.4133 37.4877C42.4133 36.9601 42.4247 36.3848 42.4457 35.7677L42.4971 34.2972C42.5124 33.9353 42.5181 33.5524 42.5181 33.1486C42.5181 32.7467 42.4933 32.4305 42.4457 32.2001C42.3976 31.9706 42.3248 31.7471 42.2286 31.5334C42.139 31.3273 41.9897 31.1528 41.8 31.0324C41.5838 30.9025 41.3486 30.8073 41.1028 30.7505C40.3676 30.5829 39.4305 30.4934 38.2914 30.4801C35.7086 30.4515 34.0495 30.6191 33.3143 30.9791C33.0143 31.1382 32.7458 31.3506 32.5219 31.6058C32.2743 31.9105 32.2362 32.0781 32.419 32.1067C33.2514 32.2305 33.8419 32.5296 34.1886 33.002L34.3143 33.2534C34.4095 33.4343 34.5086 33.7543 34.6057 34.2134C34.7009 34.6705 34.7657 35.1791 34.7924 35.7353C34.8609 36.7505 34.8609 37.621 34.7924 38.3429C34.7238 39.0667 34.659 39.6286 34.5943 40.0324C34.551 40.3717 34.4566 40.7024 34.3143 41.0134C34.2398 41.1707 34.1559 41.3234 34.0628 41.4705C34.0362 41.5122 34.0011 41.5478 33.96 41.5753C33.7802 41.6448 33.589 41.6803 33.3962 41.6801C33.2019 41.6801 32.9657 41.5829 32.6895 41.3886C32.3705 41.1558 32.0802 40.886 31.8247 40.5848C31.4499 40.1369 31.1123 39.6591 30.8152 39.1562C30.3903 38.4529 30.0006 37.7288 29.6476 36.9867L29.3143 36.381C29.1067 35.9924 28.8228 35.4248 28.4609 34.682C28.099 33.9391 27.7809 33.2172 27.5028 32.522C27.4094 32.2535 27.235 32.0206 27.0038 31.8553L26.899 31.7924C26.7963 31.7189 26.6842 31.6593 26.5657 31.6153C26.4119 31.5524 26.2516 31.507 26.0876 31.4801L20.3809 31.522C19.7981 31.522 19.4019 31.6553 19.1943 31.9181L19.1105 32.0439C19.0615 32.1478 19.0399 32.2625 19.0476 32.3772C19.0476 32.5296 19.0895 32.7181 19.1733 32.9391C20.0057 34.901 20.9124 36.7924 21.8895 38.6153C22.8686 40.4343 23.7181 41.9029 24.4419 43.0153C25.1384 44.0919 25.8748 45.1421 26.6495 46.1639C27.3981 47.1505 27.8952 47.7829 28.1371 48.0629C28.3809 48.341 28.5714 48.5486 28.7105 48.6877L29.2324 49.1886C29.5657 49.522 30.0533 49.922 30.699 50.3886C31.3467 50.8534 32.0609 51.3124 32.8457 51.7639C33.6305 52.2172 34.5409 52.5848 35.5828 52.8686C36.6247 53.1543 37.64 53.2686 38.6247 53.2153H41.019C41.5047 53.1715 41.8724 53.0191 42.1238 52.7562L42.2057 52.6515C42.277 52.5312 42.3296 52.4008 42.3619 52.2648C42.4114 52.0934 42.4343 51.901 42.4343 51.6934C42.4153 51.1503 42.4607 50.6068 42.5695 50.0743C42.6743 49.5962 42.7924 49.2343 42.9238 48.9905C43.1172 48.6265 43.3923 48.3122 43.7276 48.0724C43.7812 48.0447 43.8365 48.0205 43.8933 48.0001C44.2267 47.8896 44.6171 47.9962 45.0705 48.3239C45.5219 48.6515 45.9447 49.0534 46.3409 49.5334C46.7371 50.0134 47.2114 50.5524 47.7676 51.1505C48.3219 51.7486 48.8076 52.1924 49.2247 52.4839L49.6419 52.7353C49.92 52.9029 50.28 53.0553 50.7238 53.1943C51.1676 53.3334 51.5562 53.3677 51.8914 53.2991L57.2228 53.2153C57.7486 53.2153 58.16 53.1277 58.4514 52.9543C58.7428 52.781 58.9162 52.5886 58.9714 52.381C59.0278 52.1479 59.0317 51.9053 58.9828 51.6705C58.9542 51.4816 58.9051 51.2964 58.8362 51.1181Z" fill="white"/>
</svg>
